<svg width="1840" height="1380" viewBox="0 0 1840 1380" fill="none" xmlns="http://www.w3.org/2000/svg">
<path d="M1026.48 680.951C1026.48 680.951 1016.86 681.22 1013.29 681.51C1009.73 681.799 990.093 681.933 987.144 681.298C984.196 680.662 969.974 674.129 965.272 675.478C960.57 676.827 939.026 681.991 936.193 686C933.36 690.008 930.624 699.624 931.992 704.576C933.36 709.529 935.846 713.364 938.043 715.83C940.24 718.297 988.32 703.478 1002.04 707.582C1015.78 711.706 1032.26 709.509 1032.26 709.509L1031.7 687.541L1026.48 680.951Z" fill="white"/>
<path d="M1185.44 442.246C1185.15 441.398 1186.65 404.765 1186.65 404.765C1186.65 404.765 1194.78 392.413 1193.66 388.443C1192.53 384.473 1189.69 379.097 1187.15 376.264C1184.61 373.431 1179.5 337.742 1153.45 340.305C1127.39 342.849 1093.98 347.956 1094.83 357.861C1095.67 367.766 1094.11 394.436 1098.29 406.442C1102.48 418.466 1107 435.174 1117.49 441.957C1127.97 448.76 1133.35 450.166 1133.35 450.166L1135.89 498.882L1185.44 442.246Z" fill="white"/>
<path d="M893.26 362.909L906.788 338.031L770.122 235.396L745.359 245.745L706.876 278.716L695.218 334.408L711.328 335.892C711.328 335.892 706.799 345.065 708.052 351.019C709.304 356.974 710.865 361.676 710.865 361.676L893.26 362.909Z" fill="white"/>
<path d="M735.937 290.861C735.937 290.861 735.513 302.019 738.481 306.644C741.449 311.268 745.553 316.568 748.617 315.123C753.743 312.675 762.877 316.549 761.817 321.597C760.758 326.646 749.947 328.323 749.735 330.019C749.523 331.695 748.463 335.703 750.159 336.532C751.855 337.38 762.029 340.945 769.892 341.581C777.735 342.217 777.311 353.779 777.311 353.779L789.605 354.415C789.605 354.415 795.965 326.222 794.269 317.396C792.573 308.571 785.578 298.878 776.039 294.465C766.5 290.052 735.937 290.861 735.937 290.861Z" fill="white" stroke="#031F43" stroke-width="3.85409" stroke-miterlimit="10" stroke-linecap="round" stroke-linejoin="round"/>
<path d="M593.354 652.449C593.354 652.449 608.481 660.177 614.263 661.506C620.044 662.836 631.394 660.62 636.732 664.59C642.07 668.559 643.843 676.287 643.843 676.287C643.843 676.287 633.61 686.442 619.157 687.541C604.704 688.639 579.788 689.082 579.788 689.082L576.666 692.397L544.85 692.609L549.071 663.029L593.354 652.449Z" fill="white" stroke="#031F43" stroke-width="3.85409" stroke-miterlimit="10" stroke-linecap="round" stroke-linejoin="round"/>
<path d="M600.022 655.553C600.022 655.553 596.245 658.193 593.797 662.837Z" fill="white"/>
<path d="M600.022 655.553C600.022 655.553 596.245 658.193 593.797 662.837" stroke="#031F43" stroke-width="3.85409" stroke-miterlimit="10" stroke-linecap="round" stroke-linejoin="round"/>
<path d="M605.147 658.193C605.147 658.193 601.37 660.833 598.923 665.478Z" fill="white"/>
<path d="M605.147 658.193C605.147 658.193 601.37 660.833 598.923 665.478" stroke="#031F43" stroke-width="3.85409" stroke-miterlimit="10" stroke-linecap="round" stroke-linejoin="round"/>
<path d="M610.927 660.408C610.927 660.408 607.15 663.048 604.703 667.692Z" fill="white"/>
<path d="M610.927 660.408C610.927 660.408 607.15 663.048 604.703 667.692" stroke="#031F43" stroke-width="3.85409" stroke-miterlimit="10" stroke-linecap="round" stroke-linejoin="round"/>
<path d="M577.822 406.424C577.822 406.424 592.583 507.478 592.583 522.875C592.583 538.253 594.067 619.536 594.433 630.886C594.799 642.236 599.598 655.051 599.598 655.051C599.598 655.051 568.958 673.724 566.009 674.09C563.061 674.457 552.347 669.331 552.347 669.331L577.822 406.424Z" fill="white" stroke="#031F43" stroke-width="3.85409" stroke-miterlimit="10" stroke-linecap="round" stroke-linejoin="round"/>
<path d="M898.25 355.801L906.787 338.034L764.166 229.117L706.875 278.7L663.652 364.762L898.25 355.801Z" stroke="#031F43" stroke-width="3.85409" stroke-miterlimit="10" stroke-linecap="round" stroke-linejoin="round"/>
<path d="M889.656 355.011L768.367 258.1" stroke="#031F43" stroke-width="3.85409" stroke-miterlimit="10" stroke-linecap="round" stroke-linejoin="round"/>
<path d="M747.787 287.449C747.787 287.449 773.244 277.64 775.903 273.131C778.562 268.621 788.448 244.109 788.448 241.835C788.448 239.561 785.037 236.941 785.037 236.941C785.037 236.941 783.9 230.909 782.378 230.157C780.856 229.406 772.492 227.132 772.492 227.132C772.492 227.132 767.925 222.989 764.9 223.355C761.855 223.74 748.944 234.281 748.173 237.307C747.421 240.332 746.651 258.042 746.265 259.545C745.88 261.048 738.287 265.191 738.287 265.191" fill="white"/>
<path d="M747.787 287.449C747.787 287.449 773.244 277.64 775.903 273.131C778.562 268.621 788.448 244.109 788.448 241.835C788.448 239.561 785.037 236.941 785.037 236.941C785.037 236.941 783.9 230.909 782.378 230.157C780.856 229.406 772.492 227.132 772.492 227.132C772.492 227.132 767.925 222.989 764.9 223.355C761.855 223.74 748.944 234.281 748.173 237.307C747.421 240.332 746.651 258.042 746.265 259.545C745.88 261.048 738.287 265.191 738.287 265.191" stroke="#031F43" stroke-width="3.85409" stroke-miterlimit="10" stroke-linecap="round" stroke-linejoin="round"/>
<path d="M745.9 293.48C745.9 293.48 748.174 282.92 743.992 276.137C739.81 269.354 734.106 261.819 734.106 261.819C734.106 261.819 718.517 267.099 715.491 266.714C712.446 266.328 685.082 254.65 674.06 254.65C663.037 254.65 607.172 263.708 594.261 267.465C581.33 271.242 551.692 281.783 541.44 292.729C531.188 303.674 514.462 322.887 514.462 322.887C514.462 322.887 546.393 329.67 552.848 335.336C559.304 340.982 574.123 360.214 575.645 366.997C577.168 373.78 584.009 387.347 584.009 387.347C584.009 387.347 593.124 393.378 606.44 394.515C619.736 395.652 642.919 383.589 650.145 376.806C657.371 370.023 683.579 355.319 692.328 345.144C701.077 334.97 712.466 318.763 715.51 313.849C718.555 308.955 723.874 301.034 723.874 301.034L745.9 293.48Z" fill="white" stroke="#031F43" stroke-width="3.85409" stroke-miterlimit="10" stroke-linecap="round" stroke-linejoin="round"/>
<path d="M715.49 266.714L723.854 301.015C724.991 299.127 682.056 324.005 671.785 324.776C661.533 325.527 647.466 310.824 647.08 301.015C646.695 291.207 650.491 278.026 658.103 271.223C665.715 264.421 676.718 260.297 676.718 260.297" fill="white"/>
<path d="M715.49 266.714L723.854 301.015C724.991 299.127 682.056 324.005 671.785 324.776C661.533 325.527 647.466 310.824 647.08 301.015C646.695 291.207 650.491 278.026 658.103 271.223C665.715 264.421 676.718 260.297 676.718 260.297" stroke="#031F43" stroke-width="3.85409" stroke-miterlimit="10" stroke-linecap="round" stroke-linejoin="round"/>
<path d="M772.494 227.131L760.72 237.672" stroke="#031F43" stroke-width="3.85409" stroke-miterlimit="10" stroke-linecap="round" stroke-linejoin="round"/>
<path d="M781.24 231.641L769.466 242.201" stroke="#031F43" stroke-width="3.85409" stroke-miterlimit="10" stroke-linecap="round" stroke-linejoin="round"/>
<path d="M785.422 239.947L773.648 250.507" stroke="#031F43" stroke-width="3.85409" stroke-miterlimit="10" stroke-linecap="round" stroke-linejoin="round"/>
<path d="M512.631 323.58C511.841 323.85 504.672 334.892 504.672 334.892C504.672 334.892 484.169 351.619 486.442 388.194C488.716 424.769 503.458 529.485 503.458 540.18C503.458 550.875 496.656 591.401 498.352 618.977C500.047 646.553 498.352 732.673 498.352 732.673C498.352 732.673 525.773 733.771 533.539 731.94C541.286 730.11 561.231 720.956 561.231 720.956L554.583 696.425L562.329 650.291C562.329 650.291 566.762 565.347 567.494 562.052C568.226 558.757 570.442 546.308 571.194 536.056C571.926 525.804 577.476 471.982 578.208 444.155C578.941 416.329 584.009 387.365 584.009 387.365C584.009 387.365 586.321 358.46 572.678 341.617C558.996 324.756 512.631 323.58 512.631 323.58Z" fill="white" stroke="#031F43" stroke-width="3.85409" stroke-miterlimit="10" stroke-linecap="round" stroke-linejoin="round"/>
<path d="M558.05 717.334C558.05 717.334 577.185 736.759 581.193 739.63C585.202 742.501 605.436 743.831 609.887 747.801C614.339 751.77 616.111 757.725 616.111 757.725C616.111 757.725 608.769 770.964 605.648 772.293C602.526 773.623 560.034 774.721 552.924 772.505C545.813 770.289 531.129 763.024 528.238 763.024C525.348 763.024 524.673 765.24 524.673 765.24L500.2 760.172C500.2 760.172 498.87 731.922 500.2 727.066C501.529 722.19 558.05 717.334 558.05 717.334Z" fill="white" stroke="#031F43" stroke-width="3.85409" stroke-miterlimit="10" stroke-linecap="round" stroke-linejoin="round"/>
<path d="M552.925 734.774C552.925 734.774 558.263 728.588 564.044 727.277Z" fill="white"/>
<path d="M552.925 734.774C552.925 734.774 558.263 728.588 564.044 727.277" stroke="#031F43" stroke-width="3.85409" stroke-miterlimit="10" stroke-linecap="round" stroke-linejoin="round"/>
<path d="M559.592 738.973C559.592 738.973 564.93 732.787 570.711 731.477Z" fill="white"/>
<path d="M559.592 738.973C559.592 738.973 564.93 732.787 570.711 731.477" stroke="#031F43" stroke-width="3.85409" stroke-miterlimit="10" stroke-linecap="round" stroke-linejoin="round"/>
<path d="M564.273 743.387C564.273 743.387 569.611 737.201 575.392 735.891Z" fill="white"/>
<path d="M564.273 743.387C564.273 743.387 569.611 737.201 575.392 735.891" stroke="#031F43" stroke-width="3.85409" stroke-miterlimit="10" stroke-linecap="round" stroke-linejoin="round"/>
<path d="M535.83 360.27C535.83 360.27 546.641 367.111 546.641 379.925C546.641 392.74 541.842 401.065 541.842 401.065" fill="white"/>
<path d="M535.83 360.27C535.83 360.27 546.641 367.111 546.641 379.925C546.641 392.74 541.842 401.065 541.842 401.065" stroke="#031F43" stroke-width="3.85409" stroke-miterlimit="10" stroke-linecap="round" stroke-linejoin="round"/>
<path d="M504.672 334.891C504.672 334.891 545.429 345.682 556.24 352.234C567.05 358.786 576.955 370.695 576.955 370.695" fill="white"/>
<path d="M504.672 334.891C504.672 334.891 545.429 345.682 556.24 352.234C567.05 358.786 576.955 370.695 576.955 370.695" stroke="#031F43" stroke-width="3.85409" stroke-miterlimit="10" stroke-linecap="round" stroke-linejoin="round"/>
<path d="M700.748 336.089L711.347 335.877C711.347 335.877 707.743 343.238 707.955 347.863C708.167 352.488 708.687 353.066 708.687 353.066" stroke="#031F43" stroke-width="3.85409" stroke-miterlimit="10" stroke-linecap="round" stroke-linejoin="round"/>
<path d="M672.151 361.427L694.235 354.471L898.252 355.8V738.203H684.485L653.979 679.294L652.92 387.944L647.948 378.848L672.151 361.427Z" fill="white" stroke="#031F43" stroke-width="3.85409" stroke-miterlimit="10" stroke-linecap="round" stroke-linejoin="round"/>
<path d="M652.918 387.943L696.624 399.178L833.945 399.506L880.483 414.556V726.506" fill="white"/>
<path d="M652.918 387.943L696.624 399.178L833.945 399.506L880.483 414.556V726.506" stroke="#031F43" stroke-width="3.85409" stroke-miterlimit="10" stroke-linecap="round" stroke-linejoin="round"/>
<path d="M684.487 738.204V416.098L880.486 414.557" fill="white"/>
<path d="M684.487 738.204V416.098L880.486 414.557" stroke="#031F43" stroke-width="3.85409" stroke-miterlimit="10" stroke-linecap="round" stroke-linejoin="round"/>
<path d="M684.485 416.097L653.518 405.074" stroke="#031F43" stroke-width="3.85409" stroke-miterlimit="10" stroke-linecap="round" stroke-linejoin="round"/>
<path d="M831.5 466.142L855.03 430.916L729.733 431.34L716.051 466.99L831.5 466.142Z" fill="white" stroke="#031F43" stroke-width="3.85409" stroke-miterlimit="10" stroke-linecap="round" stroke-linejoin="round"/>
<path d="M705.257 601.478V525.977H756.575L763.859 511.543H838.262L829.282 525.977H857.513V598.164" fill="white"/>
<path d="M705.257 601.478V525.977H756.575L763.859 511.543H838.262L829.282 525.977H857.513V598.164" stroke="#031F43" stroke-width="3.85409" stroke-miterlimit="10" stroke-linecap="round" stroke-linejoin="round"/>
<path d="M713.816 600.885V561.188H848.517V598.168" stroke="#031F43" stroke-width="3.85409" stroke-miterlimit="10" stroke-linecap="round" stroke-linejoin="round"/>
<path d="M698.381 737.761V430.166H870.37V725.89" stroke="#031F43" stroke-width="3.85409" stroke-miterlimit="10" stroke-linecap="round" stroke-linejoin="round"/>
<path d="M654.289 601.789L684.891 644.724L698.264 645.783" stroke="#031F43" stroke-width="3.85409" stroke-miterlimit="10" stroke-linecap="round" stroke-linejoin="round"/>
<path d="M879.754 598.819L686.876 602.21L653.943 568.391" stroke="#031F43" stroke-width="3.85409" stroke-miterlimit="10" stroke-linecap="round" stroke-linejoin="round"/>
<path d="M694.237 354.471L695.971 397.309" stroke="#031F43" stroke-width="3.85409" stroke-miterlimit="10" stroke-linecap="round" stroke-linejoin="round"/>
<path d="M890.292 907.379L857.34 977.273C857.34 977.273 875.994 995.137 888.307 993.556C900.621 991.976 917.695 980.453 917.695 980.453L931.589 922.872L890.292 907.379Z" fill="white" stroke="#031F43" stroke-width="3.85409" stroke-miterlimit="10" stroke-linecap="round" stroke-linejoin="round"/>
<path d="M919.277 966.541C919.277 966.541 933.576 1023.72 931.186 1025.7C928.797 1027.69 911.723 1029.67 908.948 1030.08C906.173 1030.48 865.262 1026.11 859.308 1025.7C853.353 1025.3 820.786 1027.69 811.652 1024.51C802.518 1021.33 786.639 1007.43 784.249 1003.85C781.86 1000.28 791.399 995.119 795.773 992.325C800.147 989.55 830.402 984.212 838.341 977.853C846.281 971.493 852.948 958.043 855.55 951.202C858.884 942.453 866.052 940.314 868.442 939.524C870.831 938.734 872.412 952.223 872.412 952.223L864.067 967.716C864.067 967.716 873.992 975.27 883.126 979.625C892.26 984 904.169 979.221 904.169 979.221L919.277 966.541Z" fill="#45D62F" stroke="#031F43" stroke-width="3.85409" stroke-linecap="round" stroke-linejoin="round"/>
<path d="M1236.83 1085.67C1236.83 1085.67 1205.73 825.174 1197.87 808.736C1191.2 794.803 1133.31 796.037 1114.27 800.161C1095.23 804.285 1094.31 830.473 1089.68 848.472C1085.06 866.49 1039.77 1065.61 1039.77 1065.61" stroke="#031F43" stroke-width="15.4164" stroke-miterlimit="10" stroke-linecap="round" stroke-linejoin="round"/>
<path d="M1063.48 966.617L1223.4 983.749L1170.76 936.035L1063.48 966.617Z" stroke="#031F43" stroke-width="15.4164" stroke-miterlimit="10" stroke-linecap="round" stroke-linejoin="round"/>
<path d="M1161.43 807.326L1174.07 1029.07" stroke="#031F43" stroke-width="15.4164" stroke-miterlimit="10" stroke-linecap="round" stroke-linejoin="round"/>
<path d="M1052.66 929.309C1052.66 929.309 1083.28 978.063 1084.54 983.112C1085.81 988.161 1091.84 995.021 1081.09 996.909C1070.35 998.798 1027.69 980.472 1027.69 980.472L1015.05 940.986L1052.66 929.309Z" fill="white" stroke="#031F43" stroke-width="3.85409" stroke-miterlimit="10" stroke-linecap="round" stroke-linejoin="round"/>
<path d="M1039.08 974.478C1039.08 974.478 1039.72 960.584 1033.7 958.368C1027.69 956.152 1015.07 951.739 1013.8 954.572C1012.52 957.424 1011.27 977.311 1009.36 980.799C1007.48 984.268 968.916 1014.6 964.811 1015.54C960.707 1016.49 949.954 1025.02 950.59 1031.65C951.225 1038.28 960.071 1044.93 976.817 1045.88C993.563 1046.82 1024.84 1047.46 1035.9 1042.41C1046.96 1037.36 1052.65 1036.72 1058.97 1035.45C1065.29 1034.18 1096.56 1032.29 1102.58 1028.19C1108.59 1024.08 1110.48 1021.23 1110.48 1021.23C1110.48 1021.23 1101.94 999.434 1099.11 991.533C1096.25 983.632 1086.79 966.25 1086.79 966.25C1086.79 966.25 1089.95 980.471 1083.32 981.724C1076.7 982.996 1067.85 973.823 1058.68 973.187C1049.5 972.59 1039.08 974.478 1039.08 974.478Z" fill="#45D62F" stroke="#031F43" stroke-width="3.85409" stroke-linecap="round" stroke-linejoin="round"/>
<path d="M1152.2 816.577C1188.43 816.577 1217.79 810.356 1217.79 802.683C1217.79 795.01 1188.43 788.789 1152.2 788.789C1115.97 788.789 1086.6 795.01 1086.6 802.683C1086.6 810.356 1115.97 816.577 1152.2 816.577Z" fill="#031F43"/>
<path d="M1052.94 722.402C1052.94 722.402 935.617 737.934 929.2 748.109C922.764 758.284 904.553 836.503 898.136 853.634C891.719 870.766 878.846 901.309 878.846 901.309C878.846 901.309 885.283 915.781 900.815 918.98C916.346 922.198 930.819 931.294 930.819 931.294C930.819 931.294 972.597 832.726 977.415 822.011C982.232 811.297 1073.84 766.3 1073.84 766.3L1052.94 722.402Z" fill="#347CE1" stroke="#031F43" stroke-width="3.85409" stroke-miterlimit="10" stroke-linecap="round" stroke-linejoin="round"/>
<path d="M1224.89 792.835C1234.91 791.949 1148.61 812.183 1085.62 820.431C1054.88 824.458 1007.42 823.649 1004.74 825.248C1002.06 826.848 1003.14 823.649 1002.06 826.848C1000.98 830.066 1056.17 931.313 1056.17 931.313C1056.17 931.313 1052.42 945.245 1039.56 946.305C1026.71 947.384 1009.04 949.523 1002.6 949.523C996.165 949.523 981.173 943.627 981.173 943.627C981.173 943.627 969.919 914.663 965.622 906.107C961.324 897.551 946.891 863.808 936.176 850.435C925.462 837.061 914.208 815.613 913.668 804.359C913.129 793.105 920.625 770.077 943.673 763.12C966.701 756.164 1100.09 732.596 1107.05 732.056C1114 731.517 1224.89 792.835 1224.89 792.835Z" fill="#347CE1" stroke="#031F43" stroke-width="3.85409" stroke-miterlimit="10" stroke-linecap="round" stroke-linejoin="round"/>
<path d="M778.273 984.538L912.087 994.288L975.467 977.504L985.777 980.202L985.218 1000.8L916.423 1020.84L779.352 1009.45L778.273 984.538Z" fill="#A7CCE9" stroke="#031F43" stroke-width="3.85409" stroke-miterlimit="10" stroke-linecap="round" stroke-linejoin="round"/>
<path d="M792.343 1105.21C799.314 1105.21 804.965 1099.56 804.965 1092.59C804.965 1085.62 799.314 1079.96 792.343 1079.96C785.372 1079.96 779.721 1085.62 779.721 1092.59C779.721 1099.56 785.372 1105.21 792.343 1105.21Z" fill="white" stroke="#031F43" stroke-width="3.85409" stroke-miterlimit="10" stroke-linecap="round" stroke-linejoin="round"/>
<path d="M798.123 1105.21C805.094 1105.21 810.745 1099.56 810.745 1092.59C810.745 1085.62 805.094 1079.96 798.123 1079.96C791.152 1079.96 785.5 1085.62 785.5 1092.59C785.5 1099.56 791.152 1105.21 798.123 1105.21Z" fill="white" stroke="#031F43" stroke-width="3.85409" stroke-miterlimit="10" stroke-linecap="round" stroke-linejoin="round"/>
<path d="M992.851 1102.3C999.822 1102.3 1005.47 1096.65 1005.47 1089.68C1005.47 1082.71 999.822 1077.05 992.851 1077.05C985.88 1077.05 980.229 1082.71 980.229 1089.68C980.229 1096.65 985.88 1102.3 992.851 1102.3Z" fill="white" stroke="#031F43" stroke-width="3.85409" stroke-miterlimit="10" stroke-linecap="round" stroke-linejoin="round"/>
<path d="M998.651 1102.3C1005.62 1102.3 1011.27 1096.65 1011.27 1089.68C1011.27 1082.71 1005.62 1077.05 998.651 1077.05C991.68 1077.05 986.029 1082.71 986.029 1089.68C986.029 1096.65 991.68 1102.3 998.651 1102.3Z" fill="white" stroke="#031F43" stroke-width="3.85409" stroke-miterlimit="10" stroke-linecap="round" stroke-linejoin="round"/>
<path d="M785.788 1040.17C792.759 1040.17 798.41 1034.52 798.41 1027.55C798.41 1020.58 792.759 1014.93 785.788 1014.93C778.817 1014.93 773.166 1020.58 773.166 1027.55C773.166 1034.52 778.817 1040.17 785.788 1040.17Z" fill="white" stroke="#031F43" stroke-width="3.85409" stroke-miterlimit="10" stroke-linecap="round" stroke-linejoin="round"/>
<path d="M791.589 1040.17C798.56 1040.17 804.211 1034.52 804.211 1027.55C804.211 1020.58 798.56 1014.93 791.589 1014.93C784.618 1014.93 778.967 1020.58 778.967 1027.55C778.967 1034.52 784.618 1040.17 791.589 1040.17Z" fill="white" stroke="#031F43" stroke-width="3.85409" stroke-miterlimit="10" stroke-linecap="round" stroke-linejoin="round"/>
<path d="M1010.48 980.163C1010.48 980.163 1015.9 978.93 1026.46 986.561" stroke="#031F43" stroke-width="3.85409" stroke-miterlimit="10" stroke-linecap="round" stroke-linejoin="round"/>
<path d="M1002.14 988.507C1002.14 988.507 1007.55 987.274 1018.11 994.905" stroke="#031F43" stroke-width="3.85409" stroke-miterlimit="10" stroke-linecap="round" stroke-linejoin="round"/>
<path d="M992.794 996.62C992.794 996.62 998.209 995.387 1008.77 1003.02" stroke="#031F43" stroke-width="3.85409" stroke-miterlimit="10" stroke-linecap="round" stroke-linejoin="round"/>
<path d="M923.999 769.461H902.878V1032.77H923.999V769.461Z" fill="#A7CCE9" stroke="#031F43" stroke-width="3.85409" stroke-miterlimit="10" stroke-linecap="round" stroke-linejoin="round"/>
<path d="M769.602 1049.56L908.947 1030.07L924.016 1032.75L1002.02 1044.68L1001.48 1073.93L912.627 1056.05L770.142 1076.09L769.602 1049.56Z" fill="#A7CCE9" stroke="#031F43" stroke-width="3.85409" stroke-miterlimit="10" stroke-linecap="round" stroke-linejoin="round"/>
<path d="M775.555 754.854L769.986 760.327L770.371 777.555H978.473V762.254L964.695 729.34L775.555 754.854Z" fill="#A7CCE9" stroke="#031F43" stroke-width="3.85409" stroke-miterlimit="10" stroke-linecap="round" stroke-linejoin="round"/>
<path d="M961.322 715.869L966.583 753.446L790.643 756.26L775.535 754.853L772.722 715.522L783.61 698.314L793.091 682.512L800.105 689.18C800.105 689.18 825.041 691.993 825.388 690.933C825.735 689.873 829.955 673.725 829.955 673.725L908.27 697.601L911.084 704.981L961.322 715.869Z" fill="#A7CCE9" stroke="#031F43" stroke-width="3.85409" stroke-miterlimit="10" stroke-linecap="round" stroke-linejoin="round"/>
<path d="M910.758 725.003L911.105 704.981L908.292 697.601L829.977 673.725L825.409 690.933L800.127 689.18L798.026 701.474L910.758 725.003Z" fill="#A7CCE9" stroke="#031F43" stroke-width="3.85409" stroke-miterlimit="10" stroke-linecap="round" stroke-linejoin="round"/>
<path d="M825.233 723.576C831.726 723.576 836.988 718.313 836.988 711.821C836.988 705.329 831.726 700.066 825.233 700.066C818.741 700.066 813.479 705.329 813.479 711.821C813.479 718.313 818.741 723.576 825.233 723.576Z" fill="white" stroke="#031F43" stroke-width="3.85409" stroke-miterlimit="10" stroke-linecap="round" stroke-linejoin="round"/>
<path d="M966.258 752.985L959.918 742.907L772.744 715.523" stroke="#031F43" stroke-width="3.85409" stroke-miterlimit="10" stroke-linecap="round" stroke-linejoin="round"/>
<path d="M800.127 689.18L779.411 663.897L792.765 648.096L824.908 684.69" stroke="#031F43" stroke-width="3.85409" stroke-miterlimit="10" stroke-linecap="round" stroke-linejoin="round"/>
<path d="M828.224 678.641L816.778 675.461" stroke="#031F43" stroke-width="3.85409" stroke-miterlimit="10" stroke-linecap="round" stroke-linejoin="round"/>
<path d="M978.784 711.918C978.11 711.918 966.335 717.121 967.472 722.324C968.609 727.527 976.529 725.484 981.27 723.673C986.03 721.862 992.582 717.795 992.582 717.795L978.784 711.918Z" fill="white" stroke="#031F43" stroke-width="3.85409" stroke-miterlimit="10" stroke-linecap="round" stroke-linejoin="round"/>
<path d="M1032.74 701.185C1032.74 701.185 1012.51 697.022 1006.84 697.311C1001.19 697.6 973.502 693.438 969.937 694.035C966.372 694.633 952.074 694.922 946.717 698.506C941.359 702.071 932.726 714.289 932.437 715.464C932.148 716.659 933.324 718.74 933.324 718.74C933.324 718.74 934.21 724.984 935.713 725.889C937.197 726.776 944.944 719.646 950.59 716.061C956.236 712.496 968.145 713.094 971.73 713.383C975.295 713.672 991.231 722.324 1000.73 722.556C1010.23 722.787 1026.53 721.207 1030.6 720.301C1034.69 719.395 1032.74 701.185 1032.74 701.185Z" fill="white" stroke="#031F43" stroke-width="3.85409" stroke-miterlimit="10" stroke-linecap="round" stroke-linejoin="round"/>
<path d="M933.344 718.741C933.344 718.741 947.103 705.579 954.792 703.325C962.481 701.07 966.335 700.607 966.335 700.607" stroke="#031F43" stroke-width="3.85409" stroke-miterlimit="10" stroke-linecap="round" stroke-linejoin="round"/>
<path d="M1019.66 680.643C1019.66 680.643 993.236 683.495 987.147 681.279C981.057 679.063 969.418 674.631 965.275 675.459C961.112 676.288 938.412 684.594 936.195 685.981C933.979 687.368 931.763 699.547 931.204 702.881C930.646 706.196 934.249 709.799 934.249 709.799" stroke="#031F43" stroke-width="3.85409" stroke-miterlimit="10" stroke-linecap="round" stroke-linejoin="round"/>
<path d="M935.908 707.313C935.908 707.313 942.286 691.8 945.042 689.584C947.817 687.368 952.519 686.27 952.519 686.27" stroke="#031F43" stroke-width="3.85409" stroke-miterlimit="10" stroke-linecap="round" stroke-linejoin="round"/>
<path d="M1029.41 678.484L1019.65 680.643C1019.65 680.643 1031.26 694.922 1031.85 698.795C1032.45 702.669 1050.31 699.393 1050.31 699.393L1029.41 678.484Z" fill="white" stroke="#031F43" stroke-width="3.85409" stroke-miterlimit="10" stroke-linecap="round" stroke-linejoin="round"/>
<path d="M1030.7 693.516C1030.7 693.516 1027.98 699.104 1027.38 708.335C1026.78 717.565 1027.67 728.569 1027.67 728.569C1027.67 728.569 1041.66 736.007 1046.71 736.604C1051.78 737.202 1050.2 695.712 1050.2 695.712L1030.7 693.516Z" fill="white" stroke="#031F43" stroke-width="3.85409" stroke-miterlimit="10" stroke-linecap="round" stroke-linejoin="round"/>
<path d="M1096.99 656.246L1029.41 678.484C1029.41 678.484 1043.36 694.614 1044.23 700.722C1045.09 706.831 1065.16 708.565 1076.93 703.767C1088.7 698.969 1107.88 691.55 1107.88 691.55L1096.99 656.246Z" fill="#F3B63F" stroke="#031F43" stroke-width="3.85409" stroke-miterlimit="10" stroke-linecap="round" stroke-linejoin="round"/>
<path d="M1133.18 502.775C1133.18 502.775 1125.33 512.372 1123.15 530.235C1120.98 548.118 1107.89 572.958 1103.54 593.462C1099.18 613.946 1092.63 651.023 1091.76 667.152C1090.9 683.281 1088.72 729.935 1088.72 729.935C1088.72 729.935 1116.62 752.173 1129.26 764.815C1141.9 777.456 1152.81 787.92 1174.61 794.896C1196.4 801.872 1211.24 806.227 1227.79 801.429C1244.37 796.63 1260.5 782.235 1260.5 782.235C1260.5 782.235 1256.56 694.169 1253.08 661.024C1249.59 627.879 1248.72 552.03 1243.48 530.216C1238.24 508.421 1224.29 480.074 1214.27 469.167C1204.24 458.26 1202.49 457.836 1197.27 456.526C1192.05 455.235 1133.18 502.775 1133.18 502.775Z" fill="#F3B63F"/>
<path d="M1110.88 400.354C1118.29 400.354 1124.3 394.349 1124.3 386.942C1124.3 379.534 1118.29 373.529 1110.88 373.529C1103.48 373.529 1097.47 379.534 1097.47 386.942C1097.47 394.349 1103.48 400.354 1110.88 400.354Z" stroke="#031F43" stroke-width="3.85409" stroke-miterlimit="10" stroke-linecap="round" stroke-linejoin="round"/>
<path d="M1151.6 400.354C1159.01 400.354 1165.01 394.349 1165.01 386.942C1165.01 379.534 1159.01 373.529 1151.6 373.529C1144.19 373.529 1138.19 379.534 1138.19 386.942C1138.19 394.349 1144.19 400.354 1151.6 400.354Z" stroke="#031F43" stroke-width="3.85409" stroke-miterlimit="10" stroke-linecap="round" stroke-linejoin="round"/>
<path d="M1124.45 384.186H1138.19" stroke="#031F43" stroke-width="3.85409" stroke-miterlimit="10" stroke-linecap="round" stroke-linejoin="round"/>
<path d="M1164.84 382.567C1164.99 382.085 1181.06 373.645 1181.06 373.645" stroke="#031F43" stroke-width="3.85409" stroke-miterlimit="10" stroke-linecap="round" stroke-linejoin="round"/>
<path d="M1114.47 386.441C1115.59 386.441 1116.49 385.535 1116.49 384.418C1116.49 383.3 1115.59 382.395 1114.47 382.395C1113.35 382.395 1112.44 383.3 1112.44 384.418C1112.44 385.535 1113.35 386.441 1114.47 386.441Z" stroke="#031F43" stroke-width="3.85409" stroke-miterlimit="10" stroke-linecap="round" stroke-linejoin="round"/>
<path d="M1153.64 386.441C1154.76 386.441 1155.67 385.535 1155.67 384.418C1155.67 383.3 1154.76 382.395 1153.64 382.395C1152.53 382.395 1151.62 383.3 1151.62 384.418C1151.62 385.535 1152.53 386.441 1153.64 386.441Z" stroke="#031F43" stroke-width="3.85409" stroke-miterlimit="10" stroke-linecap="round" stroke-linejoin="round"/>
<path d="M1126.4 404.131C1126.4 404.131 1132.08 406.405 1136.3 404.613" stroke="#031F43" stroke-width="3.85409" stroke-miterlimit="10" stroke-linecap="round" stroke-linejoin="round"/>
<path d="M1126.26 423.52L1148.23 413.711C1148.23 413.711 1149.23 422.672 1143.33 426.468C1132.93 433.136 1126.26 423.52 1126.26 423.52Z" stroke="#031F43" stroke-width="3.85409" stroke-miterlimit="10" stroke-linecap="round" stroke-linejoin="round"/>
<path d="M1106.58 369.58C1106.58 369.58 1114.7 365.841 1119.07 367.961" stroke="#031F43" stroke-width="3.85409" stroke-miterlimit="10" stroke-linecap="round" stroke-linejoin="round"/>
<path d="M1142.93 364.551C1142.93 364.551 1151.04 360.812 1155.42 362.932" stroke="#031F43" stroke-width="3.85409" stroke-miterlimit="10" stroke-linecap="round" stroke-linejoin="round"/>
<path d="M1178.62 405.751C1178.62 405.751 1168.83 446.835 1143.39 450.362C1126.24 452.732 1105.83 438.549 1096.79 400.76C1089.36 369.638 1097.39 347.246 1128.32 343.334C1159.23 339.422 1178.02 355.667 1180.37 366.227C1182.72 376.787 1180.81 381.701 1180.81 381.701C1180.81 381.701 1185.67 378.56 1191.33 384.226C1197 389.891 1186.63 404.768 1186.63 404.768L1185.65 434.907" stroke="#031F43" stroke-width="3.85409" stroke-miterlimit="10" stroke-linecap="round" stroke-linejoin="round"/>
<path d="M1133.62 450.729L1135.18 492.43" stroke="#031F43" stroke-width="3.85409" stroke-miterlimit="10" stroke-linecap="round" stroke-linejoin="round"/>
<path d="M1186.75 385.034C1181.28 385.998 1175.98 382.567 1174.65 377.172C1173.38 372.027 1171.76 365.995 1170.26 362.256C1167.21 354.664 1160.22 354.047 1140.16 356.167C1120.1 358.287 1101.65 357.111 1098.07 369.136C1096.53 374.3 1098.28 406.463 1098.28 406.463C1098.28 406.463 1091.96 392.203 1089.22 378.212C1086.49 364.222 1089.03 359.269 1089.03 352.544C1089.03 351.985 1084.23 348.343 1081.61 340.731C1078.74 332.349 1078.03 319.919 1078.03 319.919C1078.03 319.919 1092.13 328.822 1112.79 323.349C1115.36 322.675 1118.54 321.788 1122.12 320.921C1139.98 316.624 1168.29 312.674 1184.23 335.201C1200.95 358.826 1191.34 384.225 1191.34 384.225L1186.75 385.034Z" fill="#031F43"/>
<path d="M1190.7 444.406C1190.7 443.481 1188.54 433.287 1188.54 433.287L1125.84 497.843C1125.84 497.843 1140.04 526.575 1139.73 525.65C1139.44 524.725 1190.7 444.406 1190.7 444.406Z" fill="white" stroke="#031F43" stroke-width="3.85409" stroke-miterlimit="10" stroke-linecap="round" stroke-linejoin="round"/>
<path d="M1190.7 444.406L1202.75 459.842C1202.75 459.842 1187 471.578 1172.78 492.891C1158.58 514.204 1136.34 552.822 1131.7 566.408C1127.05 579.993 1123.97 588.646 1123.97 588.646C1123.97 588.646 1135.4 537.367 1142.81 512.971C1150.25 488.593 1190.7 444.406 1190.7 444.406Z" fill="#F3B63F" stroke="#031F43" stroke-width="3.85409" stroke-miterlimit="10" stroke-linecap="round" stroke-linejoin="round"/>
<path d="M1227.57 590.574C1227.57 590.574 1222.94 597.492 1218.01 611.348C1213.05 625.203 1164.94 717.836 1157.34 722.442C1149.75 727.048 1046.58 743.543 1046.58 743.543C1046.58 743.543 1039.99 729.36 1038.33 717.836C1036.67 706.313 1041.95 693.768 1041.95 693.768C1041.95 693.768 1108.32 681.974 1115.3 676.309C1122.27 670.643 1131.42 664.091 1131.87 661.49C1132.31 658.869 1140.6 624.856 1142.33 611.791C1144.09 598.706 1149.31 572.113 1152.35 559.915C1155.4 547.698 1165.86 531.568 1168.06 528.523" fill="#F3B63F"/>
<path d="M1227.57 590.574C1227.57 590.574 1222.94 597.492 1218.01 611.348C1213.05 625.203 1164.94 717.836 1157.34 722.442C1149.75 727.048 1046.58 743.543 1046.58 743.543C1046.58 743.543 1039.99 729.36 1038.33 717.836C1036.67 706.313 1041.95 693.768 1041.95 693.768C1041.95 693.768 1108.32 681.974 1115.3 676.309C1122.27 670.643 1131.42 664.091 1131.87 661.49C1132.31 658.869 1140.6 624.856 1142.33 611.791C1144.09 598.706 1149.31 572.113 1152.35 559.915C1155.4 547.698 1165.86 531.568 1168.06 528.523" stroke="#031F43" stroke-width="3.85409" stroke-miterlimit="10" stroke-linecap="round" stroke-linejoin="round"/>
<path d="M1002.06 826.867C1002.06 826.867 989.094 820.296 987.61 811.721" stroke="#031F43" stroke-width="3.85409" stroke-miterlimit="10" stroke-linecap="round"/>
</svg>
